<svg xmlns="http://www.w3.org/2000/svg" width="125.4" height="247.8" viewBox="0 0 125.4 247.8"><path d="M114.3,183.5,96,153.4c3.4-11.6,6-24.7,6-37.5q0-2.5-.1-5C100.1,77.2,87,65.1,77.3,55.4c-4.6-4.6-8.1-8.6-10.6-14.2V41a10.6,10.6,0,0,0,4.1-1.4,5.8,5.8,0,0,0,2.7-5.1l-.5-1.2c-.8-.8-3.1-1.3-6.9-1.4a21.2,21.2,0,0,1,.1-6.5c.1-1.2.1-1.2,1.8-1.4h.3a2.4,2.4,0,0,0,2-1.3c.7-1.3-.2-2.8-.7-3.7l-.2-.3-.2-.6c-2.6-6.5-4-11-4-13.5S64.3.6,63.8.2a1.6,1.6,0,0,0-1.6,0c-.3.2-1.4.8-1.4,4.4,0,1.7-.7,5.4-4,13.6l-.2.4-.2.3a5.8,5.8,0,0,0-1,2.7,2.3,2.3,0,0,0,.2,1,2.4,2.4,0,0,0,2,1.3H58c1.7.2,1.7.2,1.8,1.4a31.7,31.7,0,0,1,.3,4,14.8,14.8,0,0,1-.2,2.5c-3.8.2-6.1.6-6.9,1.4l-.5,1.2a5.8,5.8,0,0,0,2.7,5.1A10.6,10.6,0,0,0,59.3,41v.3C56.7,46.9,52.7,51,48,55.6c-9.7,9.7-22.7,21.7-24.6,55.3q-.1,2.5-.1,5c0,12.8,2.7,25.8,6,37.5L11.1,183.5,0,247.8H12.5L24.2,207l19.6-16.4h0l.7.3,2.2.7c.3,2,.7,4.2,1,5.5s.7,3.5,9.9,4.1v46.6H67.8V201.2c9.7-.6,10.1-3.1,10.3-4.1s.6-3.5,1-5.5l2.2-.7.4-.2L101.2,207l11.7,40.8h12.5Z" fill="#b4fff4"/></svg>
