<svg id="Layer_1" data-name="Layer 1" xmlns="http://www.w3.org/2000/svg" width="256" height="256" viewBox="0 0 256 256"><title>rocket</title><path d="M180.6,187.7l-18.3-30.2c3.4-11.6,6-24.7,6-37.5q0-2.5-.1-5c-1.9-33.7-14.9-45.8-24.6-55.5C139,54.9,135.5,51,133,45.4v-.3a10.6,10.6,0,0,0,4.1-1.4,5.8,5.8,0,0,0,2.7-5.1l-.5-1.2c-.8-.8-3.1-1.3-6.9-1.4a21.2,21.2,0,0,1,.1-6.5c.1-1.2.1-1.2,1.8-1.4h.3a2.4,2.4,0,0,0,2-1.3c.7-1.3-.2-2.8-.7-3.7l-.2-.3-.2-.6c-2.6-6.5-4-11-4-13.5s-.8-4.1-1.4-4.4a1.6,1.6,0,0,0-1.6,0c-.3.2-1.4.8-1.4,4.4,0,1.7-.7,5.4-4,13.6l-.2.4-.2.3a5.8,5.8,0,0,0-1,2.7,2.3,2.3,0,0,0,.2,1,2.4,2.4,0,0,0,2,1.3h.3c1.7.2,1.7.2,1.8,1.4a31.7,31.7,0,0,1,.3,4,14.8,14.8,0,0,1-.2,2.5c-3.8.2-6.1.6-6.9,1.4l-.5,1.2a5.8,5.8,0,0,0,2.7,5.1,10.6,10.6,0,0,0,4.1,1.4v.3c-2.4,5.7-6.5,9.7-11.1,14.3-9.7,9.7-22.7,21.7-24.6,55.3q-.1,2.5-.1,5c0,12.8,2.7,25.8,6,37.5L77.4,187.7,66.3,251.9H78.8l11.7-40.8,19.6-16.4h0l.7.3,2.2.7c.3,2,.7,4.2,1,5.5s.7,3.5,9.9,4.1v46.6h10.3V205.3c9.7-.6,10.1-3.1,10.3-4.1s.6-3.5,1-5.5l2.2-.7.4-.2,19.5,16.3,11.7,40.8h12.5Z" fill="#b4fff4"/></svg>